<mxfile host="app.diagrams.net" agent="Mozilla/5.0 (Macintosh; Intel Mac OS X 10_15_7) AppleWebKit/605.1.15 (KHTML, like Gecko) Version/17.6 Safari/605.1.15" version="24.7.13">
  <diagram name="Page-1" id="3zpTAb9fxoE9w47XQ7Yq">
    <mxGraphModel dx="667" dy="1164" grid="1" gridSize="10" guides="1" tooltips="1" connect="1" arrows="1" fold="1" page="1" pageScale="1" pageWidth="1100" pageHeight="1700" math="0" shadow="0">
      <root>
        <mxCell id="0" />
        <mxCell id="1" parent="0" />
        <mxCell id="P0l3yRA_VAycSmOVowLR-1" value="User" style="whiteSpace=wrap;html=1;align=center;" vertex="1" parent="1">
          <mxGeometry x="410" y="40" width="130" height="70" as="geometry" />
        </mxCell>
        <mxCell id="P0l3yRA_VAycSmOVowLR-2" value="profile" style="ellipse;whiteSpace=wrap;html=1;align=center;" vertex="1" parent="1">
          <mxGeometry x="190" y="565" width="100" height="65" as="geometry" />
        </mxCell>
        <mxCell id="P0l3yRA_VAycSmOVowLR-4" value="Photo" style="ellipse;whiteSpace=wrap;html=1;align=center;" vertex="1" parent="1">
          <mxGeometry x="40" y="560" width="100" height="70" as="geometry" />
        </mxCell>
        <mxCell id="P0l3yRA_VAycSmOVowLR-5" value="User Name" style="ellipse;whiteSpace=wrap;html=1;align=center;" vertex="1" parent="1">
          <mxGeometry x="40" y="646" width="100" height="64" as="geometry" />
        </mxCell>
        <mxCell id="P0l3yRA_VAycSmOVowLR-6" value="Number of Answers" style="ellipse;whiteSpace=wrap;html=1;align=center;" vertex="1" parent="1">
          <mxGeometry x="40" y="732" width="100" height="68" as="geometry" />
        </mxCell>
        <mxCell id="P0l3yRA_VAycSmOVowLR-7" value="Number of Questions" style="ellipse;whiteSpace=wrap;html=1;align=center;" vertex="1" parent="1">
          <mxGeometry x="40" y="910" width="100" height="60" as="geometry" />
        </mxCell>
        <mxCell id="P0l3yRA_VAycSmOVowLR-8" value="Number of Posts" style="ellipse;whiteSpace=wrap;html=1;align=center;" vertex="1" parent="1">
          <mxGeometry x="40" y="990" width="100" height="70" as="geometry" />
        </mxCell>
        <mxCell id="P0l3yRA_VAycSmOVowLR-9" value="Number of Followers" style="ellipse;whiteSpace=wrap;html=1;align=center;" vertex="1" parent="1">
          <mxGeometry x="40" y="1080" width="100" height="70" as="geometry" />
        </mxCell>
        <mxCell id="P0l3yRA_VAycSmOVowLR-10" value="Number of Followings" style="ellipse;whiteSpace=wrap;html=1;align=center;" vertex="1" parent="1">
          <mxGeometry x="40" y="1170" width="100" height="50" as="geometry" />
        </mxCell>
        <mxCell id="P0l3yRA_VAycSmOVowLR-11" value="Number of Edits" style="ellipse;whiteSpace=wrap;html=1;align=center;" vertex="1" parent="1">
          <mxGeometry x="40" y="1240" width="100" height="50" as="geometry" />
        </mxCell>
        <mxCell id="P0l3yRA_VAycSmOVowLR-12" value="Number of Activities" style="ellipse;whiteSpace=wrap;html=1;align=center;" vertex="1" parent="1">
          <mxGeometry x="40" y="820" width="100" height="70" as="geometry" />
        </mxCell>
        <mxCell id="P0l3yRA_VAycSmOVowLR-13" value="Credentials &amp;amp; Highlights" style="ellipse;whiteSpace=wrap;html=1;align=center;" vertex="1" parent="1">
          <mxGeometry x="350" y="560" width="100" height="70" as="geometry" />
        </mxCell>
        <mxCell id="P0l3yRA_VAycSmOVowLR-14" value="Employment credentials" style="ellipse;whiteSpace=wrap;html=1;align=center;" vertex="1" parent="1">
          <mxGeometry x="350" y="650" width="100" height="70" as="geometry" />
        </mxCell>
        <mxCell id="P0l3yRA_VAycSmOVowLR-15" value="Education credential" style="ellipse;whiteSpace=wrap;html=1;align=center;" vertex="1" parent="1">
          <mxGeometry x="350" y="740" width="90" height="60" as="geometry" />
        </mxCell>
        <mxCell id="P0l3yRA_VAycSmOVowLR-16" value="Location credential" style="ellipse;whiteSpace=wrap;html=1;align=center;" vertex="1" parent="1">
          <mxGeometry x="355" y="820" width="90" height="60" as="geometry" />
        </mxCell>
        <mxCell id="P0l3yRA_VAycSmOVowLR-17" value="Date of join" style="ellipse;whiteSpace=wrap;html=1;align=center;" vertex="1" parent="1">
          <mxGeometry x="350" y="900" width="90" height="60" as="geometry" />
        </mxCell>
        <mxCell id="P0l3yRA_VAycSmOVowLR-19" value="Account" style="whiteSpace=wrap;html=1;align=center;" vertex="1" parent="1">
          <mxGeometry x="410" y="360" width="130" height="70" as="geometry" />
        </mxCell>
        <mxCell id="P0l3yRA_VAycSmOVowLR-21" value="Has" style="shape=rhombus;perimeter=rhombusPerimeter;whiteSpace=wrap;html=1;align=center;" vertex="1" parent="1">
          <mxGeometry x="415" y="200" width="120" height="60" as="geometry" />
        </mxCell>
        <mxCell id="P0l3yRA_VAycSmOVowLR-22" value="1..N" style="endArrow=none;html=1;rounded=0;exitX=0.5;exitY=1;exitDx=0;exitDy=0;entryX=0.5;entryY=0;entryDx=0;entryDy=0;" edge="1" parent="1" source="P0l3yRA_VAycSmOVowLR-1" target="P0l3yRA_VAycSmOVowLR-21">
          <mxGeometry relative="1" as="geometry">
            <mxPoint x="610" y="310" as="sourcePoint" />
            <mxPoint x="770" y="310" as="targetPoint" />
          </mxGeometry>
        </mxCell>
        <mxCell id="P0l3yRA_VAycSmOVowLR-23" value="1..1" style="endArrow=none;html=1;rounded=0;exitX=0.5;exitY=1;exitDx=0;exitDy=0;entryX=0.5;entryY=0;entryDx=0;entryDy=0;" edge="1" parent="1" source="P0l3yRA_VAycSmOVowLR-21" target="P0l3yRA_VAycSmOVowLR-19">
          <mxGeometry relative="1" as="geometry">
            <mxPoint x="490" y="280" as="sourcePoint" />
            <mxPoint x="480" y="360" as="targetPoint" />
          </mxGeometry>
        </mxCell>
        <mxCell id="P0l3yRA_VAycSmOVowLR-24" value="Name" style="ellipse;whiteSpace=wrap;html=1;align=center;" vertex="1" parent="1">
          <mxGeometry x="280" y="55" width="70" height="40" as="geometry" />
        </mxCell>
        <mxCell id="P0l3yRA_VAycSmOVowLR-25" value="Email" style="ellipse;whiteSpace=wrap;html=1;align=center;" vertex="1" parent="1">
          <mxGeometry x="280" y="120" width="70" height="40" as="geometry" />
        </mxCell>
      </root>
    </mxGraphModel>
  </diagram>
</mxfile>
